<svg xmlns="http://www.w3.org/2000/svg" xmlns:xlink="http://www.w3.org/1999/xlink" width="960pt" height="960pt" viewBox="0 0 960 960" version="1.1">
<g id="surface1">
<path style=" stroke:none;fill-rule:nonzero;fill:rgb(24.705505%,39.99939%,85.882568%);fill-opacity:1;" d="M 21.269531 196.3125 C 21.269531 99.671875 99.609375 21.332031 196.25 21.332031 L 763.75 21.332031 C 860.390625 21.332031 938.730469 99.671875 938.730469 196.3125 L 938.730469 763.8125 C 938.730469 860.453125 860.390625 938.792969 763.75 938.792969 L 196.25 938.792969 C 99.609375 938.792969 21.269531 860.453125 21.269531 763.8125 Z M 21.269531 196.3125 "/>
<path style=" stroke:none;fill-rule:nonzero;fill:rgb(100%,100%,100%);fill-opacity:0.502;" d="M 174.179688 323.757813 C 174.179688 241.183594 241.121094 174.242188 323.695313 174.242188 L 636.304688 174.242188 C 718.878906 174.242188 785.820313 241.183594 785.820313 323.757813 L 785.820313 636.367188 C 785.820313 718.941406 718.878906 785.882813 636.304688 785.882813 L 323.695313 785.882813 C 241.121094 785.882813 174.179688 718.941406 174.179688 636.367188 Z M 174.179688 323.757813 "/>
<path style=" stroke:none;fill-rule:nonzero;fill:rgb(16.078186%,16.078186%,16.078186%);fill-opacity:1;" d="M 322.785156 399.710938 C 322.785156 357.261719 357.199219 322.847656 399.648438 322.847656 L 560.351563 322.847656 C 602.800781 322.847656 637.214844 357.261719 637.214844 399.710938 L 637.214844 560.414063 C 637.214844 602.863281 602.800781 637.277344 560.351563 637.277344 L 399.648438 637.277344 C 357.199219 637.277344 322.785156 602.863281 322.785156 560.414063 Z M 322.785156 399.710938 "/>
</g>
</svg>